<svg id="Ebene_1" data-name="Ebene 1" xmlns="http://www.w3.org/2000/svg" xmlns:xlink="http://www.w3.org/1999/xlink" viewBox="0 0 270 300"><defs><style>.cls-1{fill:#ffc20e;}.cls-2{fill:#f58220;}.cls-3{fill:#d7182a;}.cls-4{fill:#00005f;}.cls-5{fill:#fff;}.cls-6{fill:url(#linear-gradient);}.cls-7{fill:url(#linear-gradient-2);}.cls-8{fill:url(#linear-gradient-3);}.cls-9{fill:url(#linear-gradient-4);}.cls-10{fill:url(#linear-gradient-5);}.cls-11{fill:url(#linear-gradient-6);}</style><linearGradient id="linear-gradient" x1="109.51" y1="167.13" x2="109.51" y2="52.04" gradientUnits="userSpaceOnUse"><stop offset="0" stop-color="#1482af"/><stop offset="0.02" stop-color="#3898bf"/><stop offset="0.05" stop-color="#6eb9d8"/><stop offset="0.08" stop-color="#96d1ea"/><stop offset="0.11" stop-color="#aee0f5"/><stop offset="0.12" stop-color="#b7e5f9"/><stop offset="0.2" stop-color="#97daf6"/><stop offset="0.33" stop-color="#67c9f2"/><stop offset="0.4" stop-color="#55c3f0"/><stop offset="0.6" stop-color="#55c3f0"/><stop offset="0.67" stop-color="#67c9f2"/><stop offset="0.8" stop-color="#97daf6"/><stop offset="0.88" stop-color="#b7e5f9"/><stop offset="0.89" stop-color="#aee0f5"/><stop offset="0.92" stop-color="#96d1ea"/><stop offset="0.95" stop-color="#6eb9d8"/><stop offset="0.98" stop-color="#3898bf"/><stop offset="1" stop-color="#1482af"/></linearGradient><linearGradient id="linear-gradient-2" x1="137.17" y1="166.88" x2="137.17" y2="51.87" xlink:href="#linear-gradient"/><linearGradient id="linear-gradient-3" x1="85.15" y1="167.38" x2="85.15" y2="52.2" xlink:href="#linear-gradient"/><linearGradient id="linear-gradient-4" x1="156.78" y1="105.14" x2="190.34" y2="91.24" gradientUnits="userSpaceOnUse"><stop offset="0.2" stop-color="#55c3f0"/><stop offset="0.32" stop-color="#67c9f2"/><stop offset="0.55" stop-color="#97daf6"/><stop offset="0.69" stop-color="#b7e5f9"/><stop offset="0.73" stop-color="#aee0f5"/><stop offset="0.79" stop-color="#96d1ea"/><stop offset="0.86" stop-color="#6eb9d8"/><stop offset="0.95" stop-color="#3898bf"/><stop offset="1" stop-color="#1482af"/></linearGradient><linearGradient id="linear-gradient-5" x1="149.47" y1="134.39" x2="199.55" y2="113.64" gradientUnits="userSpaceOnUse"><stop offset="0.3" stop-color="#55c3f0"/><stop offset="0.41" stop-color="#67c9f2"/><stop offset="0.63" stop-color="#97daf6"/><stop offset="0.76" stop-color="#b7e5f9"/><stop offset="0.79" stop-color="#aee0f5"/><stop offset="0.83" stop-color="#96d1ea"/><stop offset="0.89" stop-color="#6eb9d8"/><stop offset="0.96" stop-color="#3898bf"/><stop offset="1" stop-color="#1482af"/></linearGradient><linearGradient id="linear-gradient-6" x1="142.04" y1="163.76" x2="208.51" y2="136.22" gradientUnits="userSpaceOnUse"><stop offset="0" stop-color="#73cdf3"/><stop offset="0.12" stop-color="#62c7f1"/><stop offset="0.24" stop-color="#58c4f0"/><stop offset="0.4" stop-color="#55c3f0"/><stop offset="0.5" stop-color="#67c9f2"/><stop offset="0.69" stop-color="#97daf6"/><stop offset="0.81" stop-color="#b7e5f9"/><stop offset="0.83" stop-color="#aee0f5"/><stop offset="0.87" stop-color="#96d1ea"/><stop offset="0.92" stop-color="#6eb9d8"/><stop offset="0.97" stop-color="#3898bf"/><stop offset="1" stop-color="#1482af"/></linearGradient></defs><rect class="cls-1" x="10" width="250" height="300" rx="10"/><rect class="cls-2" x="22" y="11.75" width="226" height="276.5" rx="6.75"/><rect class="cls-3" x="30.87" y="20.37" width="208.25" height="259.25" rx="5"/><rect class="cls-4" x="38" y="27.25" width="194" height="245.5" rx="3.75"/><path class="cls-5" d="M89.59,232.91c-.57-2.41-1.65-6.72-2.18-8.48H70.82c-.55,1.78-1.61,6.07-2.18,8.48H53.75C60.06,213,63,204.56,70,186.88H88.23c7,17.68,9.93,26.08,16.25,46ZM72.9,214.5H85.32c-1.74-6.16-5-16.4-6.21-19.33C78,198.1,74.65,208.34,72.9,214.5Z"/><path class="cls-5" d="M120.83,232.91c-7.73,0-12-4.42-12-12.43v-33.6h13.92v30.94c0,3.87,1.07,4.87,5.17,4.87h13.53l2.06,10.22Z"/><rect class="cls-5" x="199.83" y="186.88" width="13.92" height="46.03"/><path class="cls-5" d="M149.06,232.91v-46H168.3c14.14,0,24,5.77,24,22.64,0,16.5-7.91,23.39-23.42,23.39ZM163,223h3.93c8.53,0,11.92-3.81,11.92-13.44,0-9-4.13-12.69-12.41-12.69H163Z"/><path class="cls-6" d="M129.64,52C121,52,117.54,58,114.31,67.48L84.89,154.07c-2.52,7.43-5.72,11.94-11.08,12.58v.48H89.08c8.62,0,12.1-5.94,15.33-15.44L133.83,65.1c2.52-7.43,6-11.93,11.37-12.59V52Z"/><path class="cls-7" d="M157.3,51.88c-8.63,0-12.11,5.93-15.34,15.43l-29.39,86.51c-2.52,7.43-5.72,11.94-11.08,12.58v.48h15.27c8.62,0,12.1-5.94,15.33-15.44l29.39-86.5c2.52-7.44,6-11.94,11.38-12.59v-.47C170.37,51.87,157.81,51.88,157.3,51.88Z"/><path class="cls-8" d="M102,52.2c-8.63,0-12.1,5.94-15.33,15.44L52.75,167.37h8.64c8.63,0,12.11-5.93,15.34-15.43l29.44-86.67c2.52-7.44,6-11.94,11.38-12.59V52.2Z"/><path class="cls-9" d="M189.9,92.35c-3.2-6.53-6.65-7.36-12.68-7.36H161.89l-6.06,17.85h30.09c4.33,0,7.83.56,10.26,3.8h.54S190.67,93.92,189.9,92.35Z"/><path class="cls-10" d="M200.83,118.09c-3-6.3-6.63-7.33-12.69-7.33h-35l-6.06,17.84h49.51c4.46,0,7.76.65,10.25,3.92h.54S201.58,119.68,200.83,118.09Z"/><path class="cls-11" d="M212,144.74c-3.13-7-7-8.08-13.09-8.08h-54.6l-5,14.78c-.36,1.07-.73,2.09-1.11,3.07h69.12c4,0,7.34.71,9.9,4h.53S212.38,145.54,212,144.74Z"/></svg>