<?xml version="1.0" encoding="UTF-8" standalone="no"?><!DOCTYPE svg PUBLIC "-//W3C//DTD SVG 1.1//EN" "http://www.w3.org/Graphics/SVG/1.1/DTD/svg11.dtd"><svg width="100%" height="100%" viewBox="0 0 123 123" version="1.1" xmlns="http://www.w3.org/2000/svg" xmlns:xlink="http://www.w3.org/1999/xlink" xml:space="preserve" xmlns:serif="http://www.serif.com/" style="fill-rule:evenodd;clip-rule:evenodd;stroke-linejoin:round;stroke-miterlimit:2;"><path d="M15.505,68.809c1.318,13.169 0.374,13.226 4.789,25.699c5.19,14.662 2.671,18.318 14.067,22.013c28.949,9.385 63.618,-2.143 68.854,-3.883c2.941,-14.699 4.4,-43.241 4.593,-47.015" style="fill:#f0e1b9;"/><path d="M13.594,69c-0.106,-1.054 0.665,-1.996 1.719,-2.102c1.054,-0.106 1.996,0.665 2.102,1.719c1.295,12.937 0.351,12.996 4.688,25.249c2.084,5.886 2.931,10.004 3.927,13.065c1.298,3.988 2.961,5.83 8.922,7.762c26.928,8.73 58.891,-1.011 66.59,-3.527c2.782,-14.888 4.16,-41.983 4.347,-45.643c0.054,-1.058 0.957,-1.874 2.016,-1.819c1.058,0.054 1.874,0.957 1.819,2.016c-0.194,3.797 -1.67,32.508 -4.628,47.294c-0.135,0.676 -0.623,1.228 -1.277,1.445c-5.326,1.771 -40.601,13.435 -70.052,3.888c-3.777,-1.224 -6.147,-2.49 -7.802,-4.036c-1.729,-1.616 -2.727,-3.549 -3.587,-6.19c-0.989,-3.039 -1.827,-7.128 -3.896,-12.972c-4.493,-12.692 -3.548,-12.747 -4.889,-26.148Z"/><path d="M15.882,69.08c3.293,-16.973 31.235,-16.077 49.634,-18.594c29.258,-4.003 41.579,9.689 42.373,15.709" style="fill:#f0e1b9;"/><path d="M17.767,69.446c-0.202,1.04 -1.21,1.721 -2.251,1.519c-1.04,-0.202 -1.721,-1.21 -1.519,-2.251c1.45,-7.475 7.125,-11.922 14.85,-14.601c10.634,-3.688 25.254,-4.004 36.408,-5.53c21.371,-2.924 34.042,3.369 40.03,9.461c2.838,2.888 4.232,5.815 4.507,7.9c0.139,1.051 -0.602,2.016 -1.652,2.155c-1.051,0.139 -2.016,-0.602 -2.155,-1.652c-0.277,-2.098 -2.284,-5.172 -6.075,-7.994c-6.267,-4.665 -17.284,-8.37 -34.135,-6.064c-10.925,1.495 -25.255,1.742 -35.67,5.354c-6.308,2.188 -11.155,5.6 -12.339,11.704Z"/><path d="M59.6,49.44c-52.038,2.266 -45.885,17.047 -43.828,20.418c5.132,8.409 59.248,9.649 69.245,7.53c9.611,-2.037 26.514,-9.243 22.388,-15.666c-8.969,-13.961 -41.698,-12.067 -47.806,-12.283Z" style="fill:#f0e1b9;"/><path d="M59.668,47.522c3.706,0.131 17.102,-0.49 29.186,2.029c8.512,1.774 16.333,5.167 20.167,11.135c1.726,2.687 1.073,5.521 -1.413,8.18c-4.365,4.669 -15.134,8.906 -22.193,10.402c-7.091,1.503 -36.091,1.376 -54.635,-1.78c-4.888,-0.832 -9.063,-1.882 -11.97,-3.142c-2.327,-1.009 -3.91,-2.227 -4.678,-3.485c-0.916,-1.501 -2.44,-4.836 -1.075,-8.613c0.849,-2.349 2.843,-4.955 7.12,-7.294c6.317,-3.455 18.062,-6.503 39.338,-7.429c0.05,-0.002 0.101,-0.002 0.151,-0.001Zm-0.058,3.84l-0.001,0c-20.308,0.89 -31.552,3.657 -37.588,6.959c-3.14,1.717 -4.728,3.506 -5.351,5.23c-0.843,2.332 0.176,4.382 0.741,5.308c0.464,0.76 1.522,1.353 2.928,1.963c2.69,1.167 6.562,2.11 11.086,2.88c18.056,3.074 46.29,3.273 53.194,1.809c5.537,-1.173 13.603,-4.111 18.308,-7.624c1.111,-0.829 2.024,-1.679 2.614,-2.557c0.573,-0.854 0.796,-1.72 0.25,-2.569c-3.342,-5.202 -10.299,-7.904 -17.72,-9.451c-11.732,-2.446 -24.731,-1.832 -28.461,-1.948Z"/><path d="M14.648,24.818c0.339,3.474 -5.356,9.089 9.386,14.805c22.725,8.811 50.714,4.688 56.828,4.188c18.117,-1.481 27.868,-6.092 26.391,-19.066" style="fill:#fff;"/><path d="M12.737,25.005c-0.103,-1.055 0.67,-1.995 1.724,-2.098c1.055,-0.103 1.995,0.67 2.098,1.724c0.099,1.015 -0.173,2.188 -0.475,3.47c-0.281,1.191 -0.618,2.547 0.096,3.99c0.927,1.873 3.347,3.725 8.548,5.742c22.383,8.679 49.956,4.557 55.978,4.065c6.99,-0.571 12.694,-1.598 16.925,-3.458c2.876,-1.265 5.034,-2.904 6.346,-5.114c1.311,-2.209 1.755,-4.961 1.368,-8.362c-0.12,-1.053 0.638,-2.005 1.69,-2.125c1.053,-0.12 2.005,0.638 2.125,1.69c1.599,14.039 -8.537,19.594 -28.142,21.197c-6.206,0.507 -34.612,4.632 -57.679,-4.312c-6.594,-2.557 -9.426,-5.244 -10.601,-7.619c-1.004,-2.029 -0.927,-3.948 -0.584,-5.697c0.229,-1.167 0.669,-2.206 0.582,-3.093Z"/><path d="M51.148,6.131c-22.823,2.532 -29.284,7.47 -34.34,13.545c-17.692,21.257 78.093,20.497 87.149,11.647c11.016,-10.764 -5.24,-30.469 -52.809,-25.192Z" style="fill:#fff;"/><path d="M50.936,4.223c29.454,-3.267 47.218,3.033 54.306,10.766c2.662,2.904 3.927,6.048 3.939,9.067c0.013,3.084 -1.266,6.084 -3.883,8.641c-0.906,0.886 -2.512,1.759 -4.735,2.499c-2.887,0.961 -6.917,1.778 -11.681,2.407c-18.185,2.4 -47.232,2.095 -63.295,-2.519c-4.417,-1.269 -7.893,-2.892 -10.04,-4.805c-1.748,-1.557 -2.698,-3.333 -2.821,-5.267c-0.125,-1.96 0.614,-4.172 2.606,-6.565c5.251,-6.309 11.9,-11.596 35.604,-14.225Zm0.423,3.817c-21.942,2.434 -28.215,7.025 -33.076,12.865c-1.193,1.434 -1.8,2.69 -1.725,3.864c0.083,1.307 1.034,2.369 2.457,3.359c1.85,1.289 4.472,2.358 7.633,3.266c15.665,4.5 43.997,4.743 61.732,2.402c4.473,-0.59 8.26,-1.342 10.971,-2.244c1.51,-0.502 2.648,-1.001 3.264,-1.602c1.79,-1.749 2.735,-3.769 2.727,-5.879c-0.009,-2.174 -1.013,-4.397 -2.93,-6.488c-6.65,-7.254 -23.422,-12.609 -51.052,-9.544Z"/><path d="M18.04,70.768c-0.273,1.024 -1.326,1.634 -2.35,1.361c-1.024,-0.273 -1.634,-1.326 -1.361,-2.35c0.769,-2.888 3.224,-13.755 42.192,-16.8c3.02,-0.236 26.153,-1.991 40.107,3.42c6.643,2.576 11.24,6.779 11.574,13.069c0.056,1.058 -0.757,1.963 -1.816,2.019c-1.058,0.056 -1.963,-0.757 -2.019,-1.816c-0.163,-3.083 -1.824,-5.406 -4.328,-7.191c-2.816,-2.008 -6.646,-3.353 -10.84,-4.278c-13.178,-2.909 -29.889,-1.589 -32.379,-1.394c-14.571,1.139 -23.725,3.32 -29.504,5.733c-7.786,3.25 -8.889,6.773 -9.277,8.228Z"/><path d="M19.426,29.242c-0.224,1.036 -1.247,1.695 -2.282,1.471c-1.036,-0.224 -1.695,-1.247 -1.471,-2.282c0.724,-3.348 3.258,-16.239 39.933,-19.769c2.436,-0.234 17.803,-1.096 31.026,2.816c9.261,2.74 17.405,7.849 19.969,16.733c0.294,1.018 -0.294,2.083 -1.312,2.377c-1.018,0.294 -2.083,-0.294 -2.377,-1.312c-2.203,-7.632 -9.413,-11.762 -17.369,-14.115c-12.602,-3.728 -27.248,-2.899 -29.569,-2.676c-33.093,3.186 -35.894,13.737 -36.547,16.759Z"/></svg>