<svg xmlns="http://www.w3.org/2000/svg" viewBox="0 0 300 68" width="300" height="68"><path fill="#cc092f" d="m 48.999994,24.2 c 4.5,0 9.6,1.1 9.6,1.1 l 2.3,-9.6 c 0,0 -6.2,-1.1 -12.4,-1.1 -11.3,0 -24.799994,6.2 -24.799994,27.600003 0,21.4 16.299994,25.3 23.099994,25.3 6.8,0 14.1,-2.8 14.1,-2.8 l -2.9,-9.5 c 0,0 -4.5,1.7 -8.4,1.7 -3.9,0 -11.8,-3.4 -11.8,-14.6 C 37.699994,31 44.499994,24.2 48.999994,24.2 Z M 0,67.000003 H 14.1 V 0 H 0 Z M 84.999994,14.6 c -15.8,2.2 -23.1,18.6 -19.7,33.800003 3.4,15.2 20.8,23.1 42.800006,16.9 l -0.6,-9 c 0,0 -9.600006,2.8 -15.200006,2.3 -5.6,-0.6 -11.3,-1.7 -12.9,-9 l 31.500006,-7.9 c 0,0 1.1,-5.600003 -0.6,-11.800003 -1.7,-6.3 -9.6,-17.5 -25.300006,-15.3 z m -7.3,23.7 c 0,0 -2.2,-10.7 8.4,-13.5 10.7,-2.8 11.3,7.9 11.3,7.9 z M 166,14.6 c -15.2,0 -19.7,3.9 -19.7,3.9 l 1.7,9 c 0,0 8.4,-2.3 17.4,-2.8 9,-0.6 7.9,7.9 7.9,7.9 -15.2,-1.1 -30.4,7.300003 -30.4,18.000003 0.1,10.8 12.4,16.4 23.1,16.4 10.7,0 21.9,-2.2 21.9,-2.2 V 31.6 C 188,22 181.2,14.6 166,14.6 Z m 6.8,42.200003 c 0,0 -13.5,1.7 -14.6,-6.2 -1.1,-7.9 14.6,-8.4 14.6,-8.4 z M 224,14.1 c -11.3,0 -25.9,2.8 -25.9,2.8 l -0.5,49.500003 h 14.6 V 25.3 c 0,0 17.4,-4.5 17.4,6.2 v 34.900003 h 14.1 V 30.4 c 0,-7.9 -8.4,-16.3 -19.7,-16.3 z M 120.4,67.000003 h 14.1 V 0 H 120.4 Z M 285.9,0 v 14.9 c -2.1,-0.1 -5,-0.3 -9,-0.3 -8.4,0 -24.2,6.8 -24.2,27.000003 0,20.3 14.6,26.4 27,26.4 5.4,0 9.8,-0.5 13.1,-1.1 H 300 V 0 Z m -18,39.4 c 0,-17.4 16.9,-14.6 16.9,-14.6 l 0.6,33.200003 c -6.2,0.5 -17.5,-1.2 -17.5,-18.600003 z" /></svg>
